
<svg width="364px" height="331px" viewBox="1026 662 364 331" version="1.1" xmlns="http://www.w3.org/2000/svg" xmlns:xlink="http://www.w3.org/1999/xlink">
    <!-- Generator: Sketch 42 (36781) - http://www.bohemiancoding.com/sketch -->
    <desc>Created with Sketch.</desc>
    <defs></defs>
    <g id="Group" stroke="none" stroke-width="1" fill="none" fill-rule="evenodd" transform="translate(1051.000000, 662.000000)">
        <circle id="Oval-2" stroke="#FF5A5E" stroke-width="50" cx="62.5" cy="134.5" r="62.5"></circle>
        <path d="M86,32 L339,32 L339,280.996226 C339,308.612548 316.617329,331 288.996454,331 L136.003546,331 C108.38735,331 86,308.61814 86,280.996226 L86,32 Z" id="Rectangle-5" fill="#FF5A5E"></path>
        <ellipse id="Oval-4" fill="#FF5A5E" cx="212.5" cy="32.5" rx="126.5" ry="32.5"></ellipse>
        <ellipse id="Oval-5" fill="#8A4646" cx="214" cy="34" rx="99" ry="18"></ellipse>
        <path d="M235,78 L317,78 L317,181 L235,181 L235,78 Z M277,122 C285.836556,122 293,114.836556 293,106 C293,97.163444 285.836556,90 277,90 C268.163444,90 261,97.163444 261,106 C261,114.836556 268.163444,122 277,122 Z" id="Combined-Shape" fill="#A4CFF9"></path>
        <rect id="Rectangle-6" fill="#FFFFFF" x="267" y="32" width="19" height="81" rx="9.5"></rect>
    </g>
</svg>