
<svg width="365px" height="331px" viewBox="1039 656 200 331" version="1.1" xmlns="http://www.w3.org/2000/svg" xmlns:xlink="http://www.w3.org/1999/xlink">
    <!-- Generator: Sketch 42 (36781) - http://www.bohemiancoding.com/sketch -->
    <desc>Created with Sketch.</desc>
    <defs></defs>
    <g id="Group" stroke="none" stroke-width="1" fill="none" fill-rule="evenodd" transform="translate(1039.000000, 656.000000)">
        <circle id="Oval-2" stroke="#FF5A5E" stroke-width="50" cx="277.5" cy="135.5" r="62.5"></circle>
        <path d="M0,32 L253,32 L253,280.996226 C253,308.612548 230.617329,331 202.996454,331 L50.0035461,331 C22.3873501,331 0,308.61814 0,280.996226 L0,32 Z" id="Rectangle-5" fill="#FF5A5E"></path>
        <ellipse id="Oval-4" fill="#FF5A5E" cx="126.5" cy="32.5" rx="126.5" ry="32.5"></ellipse>
        <ellipse id="Oval-5" fill="#8A4646" cx="128" cy="34" rx="99" ry="18"></ellipse>
        <path d="M149,78 L231,78 L231,181 L149,181 L149,78 Z M191,122 C199.836556,122 207,114.836556 207,106 C207,97.163444 199.836556,90 191,90 C182.163444,90 175,97.163444 175,106 C175,114.836556 182.163444,122 191,122 Z" id="Combined-Shape" fill="#A4CFF9"></path>
        <rect id="Rectangle-6" fill="#FFFFFF" x="181" y="32" width="19" height="81" rx="9.5"></rect>
    </g>
</svg>